Coordinates
version=1
nRows=16
nColumns=40
inDegrees=yes

Units are S.I. units (second, meters, Newtons, ...)
If the header above contains a line with 'inDegrees', this indicates whether rotational values are in degrees (yes) or radians (no).

endheader
time	pelvis_tilt	pelvis_list	pelvis_rotation	pelvis_tx	pelvis_ty	pelvis_tz	hip_flexion_r	hip_adduction_r	hip_rotation_r	knee_angle_r	knee_angle_r_beta	ankle_angle_r	subtalar_angle_r	mtp_angle_r	hip_flexion_l	hip_adduction_l	hip_rotation_l	knee_angle_l	knee_angle_l_beta	ankle_angle_l	subtalar_angle_l	mtp_angle_l	lumbar_extension	lumbar_bending	lumbar_rotation	arm_flex_r	arm_add_r	arm_rot_r	elbow_flex_r	pro_sup_r	wrist_flex_r	wrist_dev_r	arm_flex_l	arm_add_l	arm_rot_l	elbow_flex_l	pro_sup_l	wrist_flex_l	wrist_dev_l
      0.17500000	     -3.79382407	      6.54217453	      5.89608193	     -0.48106341	      0.89535465	      0.22761004	     31.75062070	    -12.85965887	    -18.28063729	     10.02835915	      0.17502789	     -0.18008531	      7.07404122	      0.00000000	    -18.10921168	      2.98265792	    -17.65132987	     11.85621377	      0.20692997	      3.01046580	     15.85231682	      0.00000000	      1.32159877	     -3.93527837	     -0.28444125	     44.33347136	    -16.39006763	     44.33347136	     74.86508879	     45.15834398	      0.00000000	      0.00000000	     44.33347136	    -16.39006763	     44.33347136	     74.86508879	     45.15834398	      0.00000000	      0.00000000
      0.18000000	     -3.66062319	      6.37258911	      5.95563885	     -0.47309612	      0.89516166	      0.22812503	     31.54618498	    -12.71183805	    -18.12607202	     10.71034575	      0.18693080	     -0.60537161	      6.44869523	      0.00000000	    -18.47442603	      2.59874484	    -17.60177080	     12.23901069	      0.21361103	      2.12490678	     15.45491615	      0.00000000	      1.25485614	     -3.63987655	     -0.51709014	     44.33438400	    -16.38692207	     44.33438400	     74.86568711	     45.15640402	      0.00000000	      0.00000000	     44.33438400	    -16.38692207	     44.33438400	     74.86568711	     45.15640402	      0.00000000	      0.00000000
      0.18500000	     -3.47494232	      6.09013113	      6.04278756	     -0.46508539	      0.89517605	      0.22853541	     31.23028120	    -12.45600642	    -18.06896497	     11.33710440	      0.19786980	     -1.15858947	      5.61986634	      0.00000000	    -18.86603642	      2.11190160	    -17.40563230	     12.63439339	      0.22051176	      1.26517310	     14.81513736	      0.00000000	      1.15162028	     -3.23500210	     -0.92448748	     44.33618686	    -16.38071611	     44.33618686	     74.86686390	     45.15263144	      0.00000000	      0.00000000	     44.33618686	    -16.38071611	     44.33618686	     74.86686390	     45.15263144	      0.00000000	      0.00000000
      0.19000000	     -3.29183474	      5.89991744	      6.01671744	     -0.45701928	      0.89522118	      0.22932067	     30.93244689	    -12.23389723	    -17.80185162	     11.96531683	      0.20883417	     -1.60090897	      5.31264527	      0.00000000	    -19.22898547	      1.71496224	    -17.36949180	     13.07309129	      0.22816849	      0.35511021	     14.49589564	      0.00000000	      1.00313171	     -2.95213972	     -1.13198098	     44.33659485	    -16.37931332	     44.33659485	     74.86712917	     45.15178936	      0.00000000	      0.00000000	     44.33659485	    -16.37931332	     44.33659485	     74.86712917	     45.15178936	      0.00000000	      0.00000000
      0.19500000	     -3.00168414	      5.50939322	      6.08835133	     -0.44893273	      0.89563693	      0.22973771	     30.53562320	    -11.89715434	    -18.02591418	     12.71542308	      0.22192600	     -2.28984057	      4.42177947	      0.00000000	    -19.59375378	      1.08027954	    -17.43378547	     13.66033888	      0.23841789	     -0.90294306	     13.58857228	      0.00000000	      0.83441835	     -2.41245928	     -1.58273645	     44.33778138	    -16.37523687	     44.33778138	     74.86789854	     45.14936451	      0.00000000	      0.00000000	     44.33778138	    -16.37523687	     44.33778138	     74.86789854	     45.14936451	      0.00000000	      0.00000000
      0.20000000	     -2.71074622	      5.12493011	      6.09967749	     -0.44080561	      0.89611986	      0.23034458	     30.08533996	    -11.52161854	    -18.10028095	     13.35208871	      0.23303791	     -2.93127631	      3.79985886	      0.00000000	    -19.93952935	      0.46777223	    -17.38195310	     14.26913365	      0.24904336	     -2.07793845	     12.73391814	      0.00000000	      0.62163693	     -1.93057435	     -2.03115651	     44.33909886	    -16.37071587	     44.33909886	     74.86874934	     45.14671101	      0.00000000	      0.00000000	     44.33909886	    -16.37071587	     44.33909886	     74.86874934	     45.14671101	      0.00000000	      0.00000000
      0.20500000	     -2.38260875	      4.78220241	      6.01114282	     -0.43265009	      0.89678820	      0.23125255	     29.64883754	    -11.14912065	    -18.19486847	     14.06026253	      0.24539787	     -3.48622815	      3.27324812	      0.00000000	    -20.27241281	     -0.10086457	    -17.55502313	     14.95427377	      0.26100131	     -3.43118120	     11.87789796	      0.00000000	      0.40662063	     -1.50112428	     -2.38326050	     44.33996336	    -16.36775262	     44.33996336	     74.86930551	     45.14499312	      0.00000000	      0.00000000	     44.33996336	    -16.36775262	     44.33996336	     74.86930551	     45.14499312	      0.00000000	      0.00000000
      0.21000000	     -2.06536375	      4.36174570	      5.98177034	     -0.42453540	      0.89747801	      0.23194436	     29.19080825	    -10.73069761	    -18.20991428	     14.75701622	      0.25755852	     -4.04635256	      2.79847891	      0.00000000	    -20.53703658	     -0.75697756	    -17.56771897	     15.73465391	      0.27462152	     -4.70870903	     10.91197441	      0.00000000	      0.14883574	     -0.98714197	     -2.78688334	     44.34096787	    -16.36431264	     44.34096787	     74.86994969	     45.14301977	      0.00000000	      0.00000000	     44.34096787	    -16.36431264	     44.34096787	     74.86994969	     45.14301977	      0.00000000	      0.00000000
      0.21500000	     -1.71056198	      3.98057234	      5.84415127	     -0.41639142	      0.89834687	      0.23297976	     28.72338491	    -10.29602633	    -18.20908046	     15.47474685	      0.27008528	     -4.49518784	      2.38513198	      0.00000000	    -20.79556475	     -1.36386141	    -17.73253417	     16.57715600	      0.28932595	     -6.10122314	      9.95716601	      0.00000000	     -0.13078022	     -0.54914704	     -3.10576704	     44.34167026	    -16.36190934	     44.34167026	     74.87039881	     45.14165404	      0.00000000	      0.00000000	     44.34167026	    -16.36190934	     44.34167026	     74.87039881	     45.14165404	      0.00000000	      0.00000000
      0.22000000	     -1.34644867	      3.54612504	      5.70468635	     -0.40826702	      0.89931492	      0.23396362	     28.23728451	     -9.81036038	    -18.25773923	     16.19840311	      0.28271547	     -4.91801560	      1.91015021	      0.00000000	    -20.96895330	     -2.04338492	    -17.97664245	     17.58363397	      0.30689231	     -7.64176790	      8.77298835	      0.00000000	     -0.41495679	     -0.03165405	     -3.45096249	     44.34239404	    -16.35943456	     44.34239404	     74.87086052	     45.14025866	      0.00000000	      0.00000000	     44.34239404	    -16.35943456	     44.34239404	     74.87086052	     45.14025866	      0.00000000	      0.00000000
      0.22500000	     -0.95569108	      2.92721496	      5.67653746	     -0.40021772	      0.90043748	      0.23455024	     27.56074766	     -9.13849501	    -18.32694924	     16.61278232	      0.28994775	     -5.51857720	      1.30728059	      0.00000000	    -21.04928024	     -2.93388670	    -18.02710003	     18.79853207	      0.32809628	     -8.99446494	      7.28420433	      0.00000000	     -0.69252180	      0.70310560	     -4.04981159	     44.34499494	    -16.35055631	     44.34499494	     74.87251011	     45.13534707	      0.00000000	      0.00000000	     44.34499494	    -16.35055631	     44.34499494	     74.87251011	     45.13534707	      0.00000000	      0.00000000
      0.23000000	     -0.60105914	      2.50350865	      5.44199850	     -0.39214551	      0.90151246	      0.23581313	     27.08260554	     -8.57764160	    -18.15886774	     17.29884983	      0.30192189	     -5.78578110	      0.82966313	      0.00000000	    -21.08663806	     -3.61862584	    -18.43956808	     20.01566768	      0.34933930	    -10.68365020	      6.02190685	      0.00000000	     -0.97473090	      1.18136940	     -4.32697428	     44.34618856	    -16.34648966	     44.34618856	     74.87326221	     45.13314502	      0.00000000	      0.00000000	     44.34618856	    -16.34648966	     44.34618856	     74.87326221	     45.13314502	      0.00000000	      0.00000000
      0.23500000	     -0.22833425	      2.09972592	      5.15027281	     -0.38409247	      0.90270086	      0.23728627	     26.56859938	     -7.99124081	    -17.99348330	     17.94107200	      0.31313078	     -5.90742364	      0.34865585	      0.00000000	    -21.09739930	     -4.27719093	    -18.79091153	     21.33359126	      0.37234141	    -12.31735430	      4.78516420	      0.00000000	     -1.30914543	      1.55878367	     -4.49769817	     44.34694218	    -16.34392443	     44.34694218	     74.87373560	     45.13176990	      0.00000000	      0.00000000	     44.34694218	    -16.34392443	     44.34694218	     74.87373560	     45.13176990	      0.00000000	      0.00000000
      0.24000000	      0.09258966	      1.63817642	      4.88715750	     -0.37612131	      0.90379959	      0.23865334	     26.07372566	     -7.33307692	    -17.73195611	     18.50921122	      0.32304668	     -6.04353308	     -0.21885167	      0.00000000	    -20.93175708	     -5.03965383	    -19.18953613	     22.87813191	      0.39929873	    -13.98534556	      3.29257706	      0.00000000	     -1.54722479	      2.05211489	     -4.68370806	     44.34775067	    -16.34117447	     44.34775067	     74.87424215	     45.13030821	      0.00000000	      0.00000000	     44.34775067	    -16.34117447	     44.34775067	     74.87424215	     45.13030821	      0.00000000	      0.00000000
      0.24500000	      0.36666812	      1.11574509	      4.60669825	     -0.36821507	      0.90480549	      0.24007478	     25.58063176	     -6.56157814	    -17.35974239	     18.96077434	      0.33092794	     -6.21204953	     -0.88873662	      0.00000000	    -20.62537390	     -5.88560165	    -19.62257577	     24.60288911	      0.42940142	    -15.57020836	      1.71975050	      0.00000000	     -1.69626898	      2.62955359	     -4.85400190	     44.34876882	    -16.33771483	     44.34876882	     74.87487788	     45.12848984	      0.00000000	      0.00000000	     44.34876882	    -16.33771483	     44.34876882	     74.87487788	     45.12848984	      0.00000000	      0.00000000
      0.25000000	      0.64413453	      0.63575947	      4.30066584	     -0.36037420	      0.90589860	      0.24165205	     25.05039788	     -5.79235323	    -16.98719490	     19.33840249	      0.33751880	     -6.23641388	     -1.59170053	      0.00000000	    -20.28402632	     -6.71490924	    -20.04874343	     26.39637236	      0.46070361	    -17.14609869	      0.27033575	      0.00000000	     -1.94312828	      3.08427471	     -4.92242501	     44.34970135	    -16.33454913	     44.34970135	     74.87545827	     45.12684351	      0.00000000	      0.00000000	     44.34970135	    -16.33454913	     44.34970135	     74.87545827	     45.12684351	      0.00000000	      0.00000000
